/vscmnt/brussel_pixiu_data/_data_brussel/112/vsc11236/PredSimResults/SUBJ11mtu3D/weighted-expIG/worker_02.mot
version=1
nRows=8
nColumns=50
inDegrees=yes
endheader
                time	         pelvis_tilt	         pelvis_list	     pelvis_rotation	           pelvis_tx	           pelvis_ty	           pelvis_tz	       hip_flexion_r	     hip_adduction_r	      hip_rotation_r	        knee_angle_r	       ankle_angle_r	         mtp_angle_r	       hip_flexion_l	     hip_adduction_l	      hip_rotation_l	        knee_angle_l	       ankle_angle_l	         mtp_angle_l	    lumbar_extension	      lumbar_bending	     lumbar_rotation	 ercspn_r/activation	 intobl_r/activation	 extobl_r/activation	    abd_r/activation	    add_r/activation	hamstrings_r/activation	bifemsh_r/activation	glut_max_r/activation	iliopsoas_r/activation	rect_fem_r/activation	  vasti_r/activation	gastroc_r/activation	 soleus_r/activation	tib_ant_r/activation	 ercspn_l/activation	 intobl_l/activation	 extobl_l/activation	    abd_l/activation	    add_l/activation	hamstrings_l/activation	bifemsh_l/activation	glut_max_l/activation	iliopsoas_l/activation	rect_fem_l/activation	  vasti_l/activation	gastroc_l/activation	 soleus_l/activation	tib_ant_l/activation	
          1.41534685	         -6.11034534	         -4.87298131	          8.38125636	          1.47196072	          0.93915785	         -0.01739291	         31.33238582	          1.26812794	         -4.59518626	         -4.83713356	          5.15960918	          0.23264640	        -12.30592382	         -5.46053134	          3.99892906	         -8.23885748	         12.13742104	         28.19497070	         -3.91055294	          3.27179840	         -2.17647510	          0.07958106	          0.11532748	          0.02333033	          0.01046809	          0.12429703	          0.04009218	          0.18651454	          0.04811405	          0.08313847	          0.01000000	          0.00999999	          0.01500701	          0.00999999	          0.28338522	          0.05494425	          0.00999999	          0.01000000	          0.04404142	          0.02532190	          0.02229079	          0.11349966	          0.04404142	          0.42688233	          0.01000001	          0.01000000	          0.32215807	          0.25056231	          0.00999999	
          1.42950031	         -6.22909964	         -4.72005576	          8.39825187	          1.49023863	          0.93715986	         -0.01659896	         31.24421343	          1.29488838	         -4.65558884	         -6.33231556	          4.75140425	          0.18871296	        -12.45288010	         -5.38401086	          3.61476651	         -9.77630883	         11.51884887	         30.25529368	         -3.59192286	          3.54960857	         -2.36843867	          0.06439164	          0.11736918	          0.01887734	          0.02391419	          0.10294529	          0.05119716	          0.15091503	          0.07607014	          0.06727006	          0.01000000	          0.00999999	          0.01529577	          0.01235890	          0.31370112	          0.06945999	          0.00999999	          0.01000000	          0.03563536	          0.03426205	          0.02261407	          0.09183629	          0.03563536	          0.41475282	          0.01000000	          0.02333029	          0.29109546	          0.23279372	          0.00999999	
          1.44365378	         -6.32511887	         -4.56170936	          8.36113416	          1.50873979	          0.93564074	         -0.01570459	         30.98344697	          1.31496142	         -4.73842123	         -7.58100685	          4.17079736	          0.17890323	        -12.40493366	         -5.29166199	          3.20101842	        -11.69767902	         10.71574009	         32.39553049	         -3.27987503	          3.83435797	         -2.53523311	          0.07737541	          0.09496725	          0.01527427	          0.09623788	          0.13059689	          0.05163165	          0.12211030	          0.08969542	          0.05443041	          0.00999999	          0.00999999	          0.01237631	          0.00999999	          0.35463055	          0.09903697	          0.00999999	          0.00999999	          0.02883373	          0.03382226	          0.02184760	          0.07430776	          0.02883374	          0.39975644	          0.01233150	          0.01887732	          0.23553488	          0.19396480	          0.00999999	
          1.45780725	         -6.39740907	         -4.39725230	          8.27363354	          1.52717591	          0.93481686	         -0.01471647	         30.64407681	          1.34189719	         -4.83980180	         -8.71589911	          3.55385631	          0.13726691	        -12.06211947	         -5.18013273	          2.76631944	        -14.14148139	          9.72199251	         34.52499600	         -2.99991385	          4.12558620	         -2.67318113	          0.08165148	          0.07684111	          0.01235891	          0.13416850	          0.15846015	          0.04658413	          0.09880345	          0.11287171	          0.04404142	          0.01000000	          0.02340810	          0.01001408	          0.01000013	          0.38331285	          0.13029462	          0.00999999	          0.00999999	          0.02333032	          0.05399048	          0.01875957	          0.06012484	          0.02333032	          0.37398549	          0.01000002	          0.01527425	          0.19057898	          0.15694327	          0.00999999	
          1.47196072	         -6.44384958	         -4.22805974	          8.13932985	          1.54538003	          0.93475522	         -0.01365927	         30.26129919	          1.37542404	         -4.95246136	         -9.84206701	          3.14751729	          0.10569246	        -11.36525175	         -5.05134813	          2.30474809	        -17.18337211	          8.52601006	         36.51068003	         -2.76124437	          4.42443925	         -2.77774619	          0.08003084	          0.06217466	          0.01000000	          0.14550262	          0.15051241	          0.04745668	          0.07994511	          0.11084930	          0.03563536	          0.01000000	          0.06767486	          0.01000000	          0.00999999	          0.40162355	          0.14239131	          0.00999999	          0.00999999	          0.01887732	          0.07168820	          0.02601521	          0.04864898	          0.01887733	          0.33140606	          0.01000000	          0.01235890	          0.15420370	          0.12698794	          0.00999999	
          1.48611419	         -6.46500677	         -4.04583984	          7.96165910	          1.56325870	          0.93543540	         -0.01256474	         29.79499155	          1.40901146	         -5.05314503	        -10.86087891	          2.87812356	          0.07933479	        -10.31025821	         -4.90385211	          1.80923253	        -20.80010315	          7.14022188	         38.08543901	         -2.56806705	          4.72171159	         -2.84683316	          0.07065276	          0.05030756	          0.00999999	          0.14479867	          0.12178452	          0.04873700	          0.06468621	          0.10815384	          0.02883374	          0.00999999	          0.12319964	          0.01000000	          0.01000000	          0.40356615	          0.14745278	          0.00999999	          0.01000000	          0.01527426	          0.08736304	          0.02167691	          0.04169432	          0.01527426	          0.27841396	          0.00999999	          0.00999999	          0.12477126	          0.10275010	          0.00999999	
          1.50026766	         -6.46370286	         -3.84062399	          7.74434336	          1.58073211	          0.93686465	         -0.01146589	         29.19753859	          1.43948255	         -5.09984701	        -11.67948572	          2.75924695	          0.05738140	         -8.92055090	         -4.73970119	          1.27192154	        -24.91909818	          5.64989163	         38.79649637	         -2.42557902	          5.00654735	         -2.88030874	          0.05723422	          0.04070549	          0.00999999	          0.13542066	          0.09853985	          0.04488109	          0.05233973	          0.10510331	          0.02333032	          0.00999999	          0.16396779	          0.01000004	          0.01000002	          0.39605792	          0.15684599	          0.00999999	          0.01000000	          0.01235891	          0.09583366	          0.01753950	          0.05693931	          0.01235891	          0.22527386	          0.00999999	          0.00999999	          0.10095651	          0.08313847	          0.00999999	
          1.51442112	         -6.44260619	         -3.60053376	          7.48710748	          1.59778910	          0.93903018	         -0.01038300	         28.42712350	          1.45946763	         -5.07172450	        -12.21713803	          2.75890075	          0.04419622	         -7.24535156	         -4.55996876	          0.70601626	        -29.41346360	          4.01391491	         38.49544775	         -2.33260888	          5.26341334	         -2.87740864	          0.04915324	          0.03293615	          0.00999999	          0.12029798	          0.07973182	          0.04350418	          0.04234979	          0.09789737	          0.01887733	          0.00999999	          0.18716702	          0.01000000	          0.01000000	          0.38246322	          0.15903834	          0.00999999	          0.02015047	          0.00999999	          0.10606506	          0.01419179	          0.07231307	          0.01000000	          0.18227646	          0.00999999	          0.00999999	          0.08168722	          0.06727006	          0.01766074	
